<svg preserveAspectRatio="none" width="100%" height="100%" overflow="visible" style="display: block;" viewBox="0 0 16 11" fill="none" xmlns="http://www.w3.org/2000/svg">
<path id="Vector (Stroke)" d="M16 6.41679C16 6.92304 15.602 7.33348 15.1111 7.33348C14.6202 7.33344 14.2222 6.92303 14.2222 6.41679V3.15379L10.5485 7.00225C10.4623 7.09255 10.3928 7.1657 10.3254 7.22785C9.31296 8.16241 7.78148 8.16242 6.76897 7.22785C6.70229 7.16629 6.6344 7.09496 6.54588 7.00225C6.44304 6.89454 6.41999 6.87164 6.40439 6.85723C6.06689 6.54574 5.55609 6.54572 5.21861 6.85723C5.20309 6.87157 5.17998 6.89542 5.07798 7.00225L1.52238 10.7263C1.17805 11.0869 0.615259 11.0919 0.265416 10.737C-0.0842885 10.3819 -0.0890999 9.80156 0.254999 9.44078L3.81147 5.71585C3.89485 5.62853 3.96584 5.55379 4.0337 5.49116C5.04619 4.55677 6.57774 4.55665 7.59017 5.49116C7.65811 5.55388 7.7286 5.62899 7.81239 5.71675C7.91054 5.81954 7.93788 5.84619 7.95475 5.86177C8.29223 6.17324 8.80217 6.17325 9.13967 5.86177C9.15586 5.84682 9.18101 5.82164 9.28116 5.71675L12.9895 1.83337H9.7777C9.28677 1.83337 8.88879 1.42296 8.88879 0.916685C8.88879 0.410414 9.28677 0 9.7777 0H15.1111L15.1996 0.004476C15.403 0.0253701 15.5946 0.118193 15.7404 0.26856C15.907 0.44045 16 0.67368 16 0.916685V6.41679Z" fill="var(--fill-0, #5AC767)"/>
</svg>
