<svg preserveAspectRatio="none" width="100%" height="100%" overflow="visible" style="display: block;" viewBox="0 0 41 41" fill="none" xmlns="http://www.w3.org/2000/svg">
<g id="Group 8">
<circle id="Ellipse 8" cx="20.2573" cy="20.2573" r="20.2573" fill="var(--fill-0, #2A75FF)"/>
<path id="Vector (Stroke)" d="M26.9355 28.9835C27.5502 28.9835 28.0485 29.4719 28.0485 30.0743C28.0485 30.6767 27.5502 31.1651 26.9355 31.1651H13.5791C12.9643 31.1651 12.466 30.6767 12.466 30.0743C12.466 29.4719 12.9643 28.9835 13.5791 28.9835H26.9355ZM19.1442 10.4403C19.1442 9.83788 19.6426 9.34953 20.2573 9.34953C20.872 9.34953 21.3703 9.83788 21.3703 10.4403V23.078L25.0355 19.4861C25.4702 19.0601 26.1748 19.0601 26.6094 19.4861C27.0441 19.9121 27.0441 20.6025 26.6094 21.0285L21.0442 26.4824C20.6096 26.9084 19.905 26.9084 19.4703 26.4824L13.9051 21.0285C13.4705 20.6025 13.4705 19.9121 13.9051 19.4861C14.3398 19.0601 15.0444 19.0601 15.479 19.4861L19.1442 23.078V10.4403Z" fill="var(--fill-0, white)"/>
</g>
</svg>
