<svg preserveAspectRatio="none" width="100%" height="100%" overflow="visible" style="display: block;" viewBox="0 0 41 41" fill="none" xmlns="http://www.w3.org/2000/svg">
<g id="Group 9">
<circle id="Ellipse 9" cx="20.2573" cy="20.2573" r="20.2573" fill="var(--fill-0, #EFF5FF)"/>
<path id="Vector (Stroke)" d="M10.3884 25.2496V16.4261C10.3884 15.7949 10.3871 15.2514 10.4235 14.8058C10.461 14.3469 10.5444 13.8901 10.7682 13.4509C11.1021 12.7956 11.6345 12.2632 12.2898 11.9292C12.7291 11.7054 13.1858 11.6221 13.6447 11.5846C14.0903 11.5482 14.6339 11.5494 15.265 11.5494H17.3547C17.9959 11.5494 18.5157 12.0692 18.5157 12.7105C18.5157 13.3517 17.9959 13.8715 17.3547 13.8715H15.265C14.5956 13.8715 14.1632 13.873 13.8341 13.8999C13.5185 13.9256 13.4016 13.9693 13.3443 13.9985C13.1259 14.1098 12.9487 14.2869 12.8374 14.5053C12.8082 14.5627 12.7646 14.6796 12.7388 14.9951C12.7119 15.3243 12.7105 15.7567 12.7105 16.4261V25.2496C12.7105 25.919 12.7119 26.3516 12.7388 26.6805C12.7646 26.9957 12.8082 27.1129 12.8374 27.1703C12.9491 27.3893 13.1266 27.5673 13.3443 27.6783C13.4015 27.7074 13.5185 27.7512 13.833 27.7769C14.1615 27.8038 14.5935 27.8041 15.2616 27.8041H24.0919C24.7597 27.8041 25.1913 27.8037 25.5194 27.7769C25.8332 27.7512 25.9507 27.7074 26.0081 27.6783C26.2268 27.5668 26.406 27.3874 26.5172 27.1692C26.5464 27.1117 26.5902 26.9949 26.6159 26.6816C26.6427 26.3533 26.6431 25.9211 26.6431 25.253V23.1599C26.6431 22.5187 27.1629 21.9989 27.8041 21.9989C28.4453 21.9989 28.9652 22.5187 28.9652 23.1599V25.253C28.9652 25.8825 28.9663 26.4251 28.93 26.8698C28.8925 27.3283 28.809 27.7847 28.5853 28.2236C28.2513 28.8792 27.7177 29.4126 27.0626 29.7464C26.6236 29.97 26.1672 30.0536 25.7088 30.0911C25.264 30.1274 24.7215 30.1262 24.0919 30.1262H15.2616C14.6318 30.1262 14.0886 30.1274 13.6436 30.0911C13.1852 30.0536 12.7288 29.9701 12.2898 29.7464C11.634 29.4122 11.1018 28.8792 10.7682 28.2248C10.5444 27.7856 10.461 27.3288 10.4235 26.8698C10.3871 26.4244 10.3884 25.8807 10.3884 25.2496ZM30.1262 17.3547C30.1262 17.9959 29.6064 18.5157 28.9652 18.5157C28.3239 18.5157 27.8041 17.9959 27.8041 17.3547V14.3523L21.6587 20.4977C21.2053 20.9511 20.4703 20.9511 20.0169 20.4977C19.5635 20.0442 19.5635 19.3093 20.0169 18.8559L26.1623 12.7105H23.1599C22.5187 12.7105 21.9989 12.1906 21.9989 11.5494C21.9989 10.9082 22.5187 10.3884 23.1599 10.3884H28.9652C29.6064 10.3884 30.1262 10.9082 30.1262 11.5494V17.3547Z" fill="var(--fill-0, #31353B)"/>
</g>
</svg>
