<svg preserveAspectRatio="none" width="100%" height="100%" overflow="visible" style="display: block;" viewBox="0 0 20 19" fill="none" xmlns="http://www.w3.org/2000/svg">
<path id="Vector (Stroke)" d="M6.5583 0.0553662C6.91998 -0.0203931 7.29445 -0.0188123 7.65637 0.0626229C8.09232 0.160774 8.48424 0.407288 8.986 0.709377L9.31615 0.90803C9.3766 0.944423 9.38623 0.951073 9.39846 0.95792C9.55301 1.04431 9.72646 1.09188 9.90408 1.09761C9.91896 1.09809 9.93674 1.09852 10.0009 1.09852C10.0657 1.09852 10.0826 1.09809 10.0976 1.09761C10.275 1.0919 10.4473 1.04389 10.6015 0.95792C10.6149 0.950433 10.6302 0.941676 10.6847 0.908937L11.013 0.712099L11.0157 0.711191C11.5141 0.411952 11.9036 0.167609 12.3372 0.0698796C12.6964 -0.0109821 13.0694 -0.0150579 13.4308 0.0599016C13.8665 0.150347 14.261 0.388607 14.7658 0.68035L15.2235 0.94522C15.7304 1.23816 16.1341 1.46146 16.431 1.79516C16.6769 2.07155 16.8609 2.39744 16.971 2.75123C17.1036 3.17714 17.0875 3.63783 17.0778 4.2189L17.0705 4.61349C17.0696 4.67088 17.0703 4.69245 17.0705 4.71055C17.0732 4.88795 17.1177 5.06316 17.2017 5.22033C17.2088 5.23362 17.2172 5.24837 17.2496 5.30469C17.2873 5.37011 17.2912 5.37634 17.2985 5.38814C17.3915 5.53821 17.5191 5.66411 17.6711 5.75551C17.6855 5.76416 17.703 5.77446 17.7552 5.80359L18.0944 5.99226H18.0935L18.0953 5.99317C18.6027 6.27622 19.0081 6.49224 19.3092 6.81953C19.5588 7.09104 19.7486 7.4134 19.8646 7.76381C20.0045 8.18674 19.9971 8.64693 19.9984 9.23057L19.9993 9.76394C20.0007 10.344 20.0108 10.8057 19.8718 11.2298C19.7562 11.5823 19.5666 11.9063 19.3155 12.1795C19.0126 12.5092 18.6031 12.7266 18.0908 13.0113L17.7552 13.1973L17.7534 13.1982C17.6992 13.2283 17.6853 13.2361 17.6729 13.2435C17.5204 13.3348 17.3914 13.462 17.2976 13.6136C17.2876 13.6297 17.2761 13.6485 17.2487 13.6962C17.2169 13.7514 17.2087 13.7656 17.2017 13.7787C17.1179 13.9354 17.0732 14.1109 17.0705 14.2894C17.0703 14.3072 17.0696 14.3279 17.0705 14.3846L17.0778 14.7928C17.0874 15.368 17.1044 15.8267 16.9728 16.2505C16.8633 16.6035 16.6794 16.9286 16.4347 17.2048C16.1398 17.5376 15.7388 17.7614 15.238 18.0529L14.7794 18.3196C14.2746 18.6134 13.8795 18.8539 13.4425 18.9455C13.0794 19.0216 12.705 19.0175 12.3445 18.9364C11.9085 18.8383 11.517 18.5929 11.0148 18.2906L10.6666 18.0801C10.6231 18.0539 10.6113 18.0476 10.6015 18.042C10.447 17.9558 10.2733 17.9072 10.0958 17.9014H9.90318C9.72672 17.9071 9.55418 17.9549 9.39937 18.0411C9.38551 18.0489 9.36879 18.0589 9.31525 18.091L8.98781 18.2879C8.4881 18.5879 8.0977 18.8323 7.66361 18.9301C7.30364 19.0111 6.93075 19.014 6.57005 18.9391C6.13432 18.8487 5.74002 18.6115 5.235 18.3196L4.77731 18.0547C4.27105 17.7622 3.86681 17.5386 3.56979 17.2048C3.32378 16.9282 3.1399 16.6024 3.0298 16.2487C2.89693 15.8219 2.91227 15.3603 2.92216 14.7729L2.92849 14.3946C2.92962 14.3274 2.92967 14.3085 2.9294 14.2921C2.9264 14.116 2.88276 13.9442 2.80186 13.7905C2.79491 13.7773 2.78876 13.7665 2.75121 13.7007C2.71713 13.641 2.70807 13.6255 2.69965 13.6118C2.60665 13.4611 2.47913 13.334 2.3279 13.2426C2.31488 13.2348 2.30296 13.2284 2.23744 13.1918L1.90549 13.0068C1.39669 12.7229 0.991924 12.5071 0.69073 12.1795C0.440352 11.9071 0.251845 11.5853 0.136265 11.2361C-0.00357566 10.8137 0.00282012 10.3547 0.00149233 9.76847L0.000587817 9.2469C-0.000745834 8.65808 -0.00969952 8.19489 0.129933 7.76925C0.245619 7.41681 0.435141 7.09271 0.686208 6.81953C0.989097 6.49002 1.39758 6.27342 1.91001 5.98863L2.24559 5.80177C2.30588 5.76827 2.31683 5.76267 2.3288 5.75551C2.48116 5.66439 2.60942 5.5378 2.70327 5.38633C2.71052 5.3746 2.71531 5.3661 2.75121 5.30378C2.78325 5.24816 2.79121 5.23348 2.79824 5.22033C2.88297 5.06179 2.92855 4.88672 2.9312 4.71055C2.93118 4.70882 2.93149 4.70382 2.9312 4.69331C2.93076 4.67685 2.92998 4.64978 2.9294 4.6153L2.92216 4.22072C2.91234 3.63537 2.8968 3.1751 3.02889 2.74942C3.13829 2.39691 3.32126 2.07164 3.56617 1.79516C3.85808 1.46567 4.25381 1.24325 4.74746 0.956105L4.75289 0.953384L4.76736 0.944313L5.21871 0.681258L5.22776 0.676722C5.72991 0.384368 6.12307 0.146582 6.5583 0.0553662ZM7.33165 1.51306C7.17754 1.47838 7.01732 1.47675 6.86131 1.50943C6.71394 1.54031 6.55905 1.62043 5.96584 1.9657C5.96422 1.96664 5.96205 1.96748 5.96041 1.96842L5.52534 2.22059L5.52082 2.22422L5.51178 2.22966C5.50995 2.23074 5.50818 2.23222 5.50635 2.23329C4.91823 2.5756 4.77339 2.67014 4.6742 2.78208C4.56951 2.90025 4.49057 3.03964 4.44355 3.19117C4.39887 3.33527 4.39227 3.51089 4.40375 4.19532L4.41099 4.5899C4.4114 4.61468 4.41133 4.63207 4.41189 4.65249C4.41239 4.67098 4.41327 4.70032 4.41279 4.73232C4.40661 5.14992 4.29942 5.5585 4.10436 5.92332C4.0838 5.96175 4.06208 5.99917 4.03471 6.04669C4.01109 6.08769 3.98597 6.13097 3.96235 6.16915C3.74369 6.52245 3.44418 6.81859 3.08769 7.03179C3.04946 7.05465 3.00714 7.07753 2.96377 7.10163L2.62819 7.28849C2.02684 7.6227 1.87849 7.71594 1.77614 7.8273C1.66883 7.94408 1.58704 8.0824 1.53735 8.23368C1.49007 8.3778 1.48152 8.55449 1.48308 9.24327L1.48399 9.76575C1.48554 10.4484 1.49529 10.6246 1.54278 10.7681C1.59292 10.9194 1.67463 11.0573 1.78067 11.1726C1.88247 11.2832 2.02999 11.376 2.62638 11.7087L2.95834 11.8938C3.00564 11.9202 3.05087 11.945 3.09221 11.97C3.44526 12.1832 3.7428 12.4777 3.95963 12.829C3.9846 12.8695 4.00772 12.9112 4.03742 12.9632C4.06329 13.0086 4.09014 13.0541 4.1125 13.0966C4.30309 13.4586 4.40497 13.8598 4.41189 14.2667C4.41268 14.3132 4.4111 14.3585 4.41008 14.4191L4.40375 14.7983C4.39219 15.4851 4.39946 15.6615 4.44445 15.8061C4.49168 15.9576 4.57062 16.0976 4.67601 16.2161C4.77631 16.3286 4.92313 16.4243 5.5172 16.7676L5.97489 17.0315C6.56791 17.3742 6.72313 17.4536 6.87035 17.4842C7.0253 17.5163 7.18508 17.5152 7.33889 17.4805C7.48548 17.4475 7.63916 17.365 8.22621 17.0125L8.55455 16.8156C8.60461 16.7856 8.64132 16.7634 8.67937 16.7422C9.03985 16.5413 9.44249 16.4298 9.85524 16.4165C9.89944 16.4151 9.94336 16.4147 9.99906 16.4147C10.055 16.4147 10.0994 16.4151 10.1438 16.4165C10.5569 16.4299 10.9616 16.5418 11.3233 16.744C11.3588 16.7639 11.3936 16.7847 11.43 16.8066H11.4291L11.7782 17.0161C12.3675 17.3709 12.5219 17.4538 12.6692 17.4869C12.8246 17.5218 12.985 17.5229 13.1395 17.4905C13.2868 17.4597 13.4427 17.3795 14.0359 17.0343L14.4936 16.7676C15.0818 16.4252 15.2274 16.3298 15.3266 16.2179C15.4316 16.0994 15.5104 15.9599 15.5573 15.8088C15.6013 15.6669 15.6075 15.4947 15.5962 14.8182L15.5889 14.41C15.5879 14.3475 15.5874 14.3085 15.588 14.2676C15.5942 13.8523 15.6995 13.4434 15.8956 13.0766C15.9162 13.038 15.9387 12.9999 15.9661 12.9524C15.9981 12.8968 16.0176 12.8637 16.0385 12.8299C16.2572 12.4765 16.5576 12.1804 16.914 11.9673C16.9512 11.9451 16.9885 11.9243 17.0353 11.8983L17.0371 11.8965L17.3726 11.7115C17.9743 11.3771 18.1233 11.284 18.2256 11.1726C18.333 11.0558 18.4138 10.9168 18.4635 10.7654C18.5101 10.6232 18.5184 10.4496 18.5168 9.76757L18.5159 9.2342C18.5144 8.54882 18.5054 8.37477 18.458 8.23187C18.4083 8.08166 18.3271 7.94359 18.2202 7.8273C18.1186 7.71685 17.9715 7.6247 17.3753 7.29212H17.3744L17.3735 7.29121L17.0343 7.10163C16.9813 7.07205 16.946 7.05278 16.9095 7.03088C16.5559 6.81845 16.2575 6.52393 16.0394 6.17187C16.0155 6.13322 15.9895 6.08666 15.967 6.0476C15.9392 5.99932 15.9165 5.9607 15.8956 5.92151C15.7005 5.55612 15.5944 5.14851 15.588 4.73322C15.5874 4.69185 15.5879 4.65234 15.5889 4.589L15.5962 4.19351C15.6076 3.51055 15.6009 3.33701 15.5564 3.19389C15.5092 3.04246 15.4303 2.90247 15.3248 2.78389C15.2244 2.67116 15.0774 2.5755 14.4836 2.23238L14.0259 1.96842C13.4328 1.62566 13.2777 1.54633 13.1305 1.51578C12.9763 1.4838 12.8165 1.48461 12.6619 1.51941C12.5158 1.55236 12.3626 1.63419 11.7773 1.98565C11.7762 1.98632 11.7748 1.98681 11.7737 1.98747L11.4463 2.1843C11.3975 2.21357 11.3599 2.23544 11.3215 2.25687C10.9603 2.45824 10.5576 2.57012 10.1456 2.58342C10.1013 2.58485 10.0567 2.58433 10.0009 2.58433C9.9457 2.58433 9.90038 2.58485 9.85614 2.58342C9.44308 2.5701 9.03925 2.4581 8.67757 2.25596C8.63788 2.23378 8.59558 2.20828 8.55274 2.18249L8.2235 1.98384C7.63385 1.62883 7.47886 1.54619 7.33165 1.51306ZM12.964 9.49998C12.964 7.85839 11.6369 6.52745 9.99996 6.52745C8.36318 6.52761 7.03678 7.8585 7.03678 9.49998C7.0368 11.1414 8.36319 12.4723 9.99996 12.4725C11.6369 12.4725 12.964 11.1415 12.964 9.49998ZM14.4465 9.49998C14.4465 11.9623 12.4553 13.9583 9.99996 13.9583C7.54474 13.9582 5.55431 11.9622 5.55429 9.49998C5.55429 7.0377 7.54472 5.0418 9.99996 5.04163C12.4553 5.04163 14.4465 7.0376 14.4465 9.49998Z" fill="var(--fill-0, #C7CAD0)"/>
</svg>
